<svg width="254.8" height="46.40141717439483" viewBox="0 0 369.54430379746833 67.29740739767514"
    class="looka-1j8o68f">
    <defs id="SvgjsDefs1677"></defs>
    <g id="SvgjsG1678" featurekey="symbolFeature-0"
        transform="matrix(0.700852966806526,0,0,0.700852966806526,-1.8284112408534312,-1.3915221618863227)"
        fill="#379e86">
        <title xmlns="http://www.w3.org/2000/svg">Artboard 4</title>
        <path xmlns="http://www.w3.org/2000/svg"
            d="M4.77,59.79l5.62,1.83V78.67a6.51,6.51,0,0,0,6.51,6.51h14l2.91,10.2a3.62,3.62,0,0,0,4.47,2.49l37.5-10.7a3.62,3.62,0,0,0,2.49-4.47L72.72,63.25a36.09,36.09,0,0,0,9.53-18.86H94a3.43,3.43,0,1,0,0-6.86H59.24l-6.74,14a3.43,3.43,0,0,1-3.09,1.94l-.35,0a3.43,3.43,0,0,1-3-2.57L41.65,33.2,37.23,42a3.43,3.43,0,0,1-3.06,1.88H23.44a3.43,3.43,0,0,1,0-6.86h8.62l7.61-15.1a3.43,3.43,0,0,1,6.39.71L50.43,40,54,32.62a3.43,3.43,0,0,1,3.09-1.94H82a36.2,36.2,0,0,0-71.61,8L2.88,55.53A3.14,3.14,0,0,0,4.77,59.79Z"></path>
    </g>
    <g id="SvgjsG1679" featurekey="nameFeature-0"
        transform="matrix(0.828512970318519,0,0,0.828512970318519,85.50289348201936,-6.826949056187648)"
        fill="#379e86">
        <path
            d="M18.12 24.04 c1.48 -3.16 1.08 -5.8 -3.68 -6.8 c-1.4 -0.32 -2.8 -0.08 -4.2 0.04 l0.16 15.32 c3.16 -2.28 6.32 -5.56 7.72 -8.56 z M25.88 19.32 c0.88 9.92 -11.04 19.36 -17.68 22.68 c-0.56 -0.56 -2.48 -1.04 -2.48 -1.04 l-0.4 -2.36 l-1.6 -0.36 l-0.4 -20.24 l-2.4 0.32 l0.8 -2.16 l-1.08 -1.36 l0.92 -1.68 l-0.96 -1.92 c3.92 -0.64 10.16 -1.36 15.2 -0.68 c4.96 0.64 9.56 2.84 10.08 8.8 z M41.44 23.08 c4.92 -3.2 2.96 -7 -2.8 -6.52 c-0.48 0.04 -1.04 0.08 -1.68 0.12 l0.32 9.08 c1.4 -0.88 2.76 -1.76 4.16 -2.68 z M46.040000000000006 28.48 l4.96 10.56 l-1.68 1.76 l-2.72 0 l-1.6 1.92 l-4.88 -10.32 c-0.84 0.48 -1.68 0.92 -2.56 1.36 l0.24 6.88 l-2.12 -0.04 l-1.44 1.12 l-1.48 -1.4 l-1.96 1.04 l-0.8 -24.04 l-2 0.2 l0.88 -2.44 l-1.32 -1.68 l0.68 -1.04 l-0.84 -1.76 s7.84 -1.08 11.64 -1.04 c4.52 0.04 9.6 0.76 11.68 5.64 c2.24 5.4 -0.28 9.72 -4.68 13.28 z M61.720000000000006 36.72 c-0.12 2.16 -1.88 4.08 -4 4.44 c-2.24 0.36 -4.08 -1.24 -3.96 -3.52 c0.12 -2.12 1.88 -4.12 4.76 -4.6 l0.24 1.24 l1.28 -0.8 c1.28 1 1.72 2.04 1.68 3.24 z M92.04 23.08 c4.92 -3.2 2.92 -7 -2.84 -6.52 c-0.48 0.04 -1.04 0.08 -1.64 0.12 l0.32 9.08 c1.4 -0.88 2.76 -1.76 4.16 -2.68 z M101.32000000000001 15.2 c3.48 8.4 -4.48 14.12 -13.16 18.56 l0.24 6.8 l-1.96 0.2 l-1.4 0.88 l-1.8 -1.28 l-1.84 1 l-0.8 -24.04 c-1.16 0.12 -1.88 0.2 -1.88 0.2 l0.64 -2.28 l-1.48 -1.72 l0.6 -3 s7.36 -1 11.16 -0.96 c4.52 0.04 9.6 0.76 11.68 5.64 z M117.68 23.08 c4.92 -3.2 2.96 -7 -2.8 -6.52 c-0.48 0.04 -1.04 0.08 -1.68 0.12 l0.32 9.08 c1.4 -0.88 2.76 -1.76 4.16 -2.68 z M122.28 28.48 l4.96 10.56 l-1.68 1.76 l-2.72 0 l-1.6 1.92 l-4.88 -10.32 c-0.84 0.48 -1.68 0.92 -2.56 1.36 l0.24 6.88 l-2.12 -0.04 l-1.44 1.12 l-1.48 -1.4 l-1.96 1.04 l-0.8 -24.04 l-2 0.2 l0.88 -2.44 l-1.32 -1.68 l0.68 -1.04 l-0.84 -1.76 s7.84 -1.08 11.64 -1.04 c4.52 0.04 9.6 0.76 11.68 5.64 c2.24 5.4 -0.28 9.72 -4.68 13.28 z M138.52 28.52 l3.24 -0.32 l-1.64 -6.24 z M144.16000000000003 9.68 l8.24 30.88 l-2 -0.12 l-0.92 1.12 l-2.16 -1.16 l-1.88 1.64 l-1.88 -7 l-6.8 0.72 l-1.36 5.6 l-2.68 0.24 l-2 -1.4 l-2.44 0.52 l5.72 -23.32 l-2.72 0.16 l0.32 -2 l-0.96 -1.4 l1 -1.76 l-1.6 -1.72 z M169.32 12.04 l1.28 1.36 l-0.96 1.56 l0.76 2.08 l-6.92 0.48 l0.16 23 l-1.88 -0.12 l-1.6 0.96 l-1.4 -1.4 l-2.12 1.04 l-0.16 -22.96 l-5.04 0.36 l-0.8 -2.8 l0.6 -1.88 l-1.36 -2.28 l20.2 -1.4 z M177.24 10.48 l2.4 -0.12 l-0.2 29.96 l-2.2 1.6 l-2.64 -1.76 l-2.16 1.24 l0.2 -30.6 l2.2 -1.44 l1.48 1.6 z M202.84 11.8 l1.8 1.2 l-8.28 10.56 l7 16.2 l-2.72 2.2 l-1.92 -0.96 l-1.56 2.04 l-5.72 -13.24 l-1.16 1.48 l0 9.6 l-2.4 -0.84 l-1.84 1.84 l-2.76 -1.24 l0 -28.88 l1.68 -1.76 l1.72 1.52 l1 -0.88 l2.6 0.4 l0 8.92 l9.24 -11.72 l0.6 1.92 l2.2 -0.72 z M239.95999999999998 11.8 l1.8 1.2 l-8.28 10.56 l7 16.2 l-2.72 2.2 l-1.92 -0.96 l-1.56 2.04 l-5.72 -13.24 l-1.16 1.48 l0 9.6 l-2.4 -0.84 l-1.84 1.84 l-2.76 -1.24 l0 -28.88 l1.68 -1.76 l1.72 1.52 l1 -0.88 l2.6 0.4 l0 8.92 l9.24 -11.72 l0.6 1.92 l2.2 -0.72 z M263.24 10.2 l0.44 30.8 l-2.72 -1 l-2.2 1.24 l-2.08 -0.76 l0 -1.76 l-10.36 3.2 l-0.24 -2 l-1.52 -0.08 l0.24 -2.24 l-1.32 -0.12 l0.52 -26.16 l2 -1.28 l2.08 1.32 l2.96 -1.4 l-0.52 23.48 l6.04 -1.92 l-0.32 -20.88 l2.08 -0.92 l1.48 1.48 l0.8 -0.64 z M292.71999999999997 10.600000000000001 l0.96 30.84 l-2.8 -1.04 l-1.72 1.72 l-2.44 -1.04 l-0.4 -10.44 l-5.72 13.72 l-5.92 -14.36 l0 11.08 l-1.92 -0.24 l-1.76 0.76 l-1.16 -1.24 l-2.16 0.96 l0.2 -31.16 l2.04 1.2 l1.6 -1.6 l2.88 1.04 l6.04 15.52 l5.56 -16.04 l1.48 0.76 l1.68 -2.28 l1.56 1.84 l2 0 z M305.88 28.52 l3.24 -0.32 l-1.64 -6.24 z M311.52 9.68 l8.24 30.88 l-2 -0.12 l-0.92 1.12 l-2.16 -1.16 l-1.88 1.64 l-1.88 -7 l-6.8 0.72 l-1.36 5.6 l-2.68 0.24 l-2 -1.4 l-2.44 0.52 l5.72 -23.32 l-2.72 0.16 l0.32 -2 l-0.96 -1.4 l1 -1.76 l-1.6 -1.72 z M332.71999999999997 23.08 c4.92 -3.2 2.96 -7 -2.8 -6.52 c-0.48 0.04 -1.04 0.08 -1.68 0.12 l0.32 9.08 c1.4 -0.88 2.76 -1.76 4.16 -2.68 z M337.32 28.48 l4.96 10.56 l-1.68 1.76 l-2.72 0 l-1.6 1.92 l-4.88 -10.32 c-0.84 0.48 -1.68 0.92 -2.56 1.36 l0.24 6.88 l-2.12 -0.04 l-1.44 1.12 l-1.48 -1.4 l-1.96 1.04 l-0.8 -24.04 l-2 0.2 l0.88 -2.44 l-1.32 -1.68 l0.68 -1.04 l-0.84 -1.76 s7.84 -1.08 11.64 -1.04 c4.52 0.04 9.6 0.76 11.68 5.64 c2.24 5.4 -0.28 9.72 -4.68 13.28 z"></path>
    </g>
    <g id="SvgjsG1680" featurekey="sloganFeature-0"
        transform="matrix(1.1343757517174644,0,0,1.1343757517174644,92.00000056415485,43.89705724411602)"
        fill="#379e86">
            <path
            d="M4.66 11.52 c0.44 0.44 0.72 1.04 0.72 1.7 l0 4.38 c0 1.32 -1.08 2.4 -2.4 2.4 l-2.96 0 l-0.02 -14.24 l2.64 0 c1.46 0.06 2.32 1.46 2.3 2.78 l-0.02 1.98 c0 0.36 -0.1 0.7 -0.26 1 z M2.98 18.08 c0.28 0 0.5 -0.22 0.5 -0.48 l-0.02 -4.38 c0 -0.28 -0.22 -0.48 -0.48 -0.48 l-1.06 0 l0 5.34 l1.06 0 z M1.9 7.66 l0 3.16 l0.8 0 c0.16 0 0.32 -0.14 0.32 -0.32 l0.02 -1.98 c0 -0.4 -0.2 -0.84 -0.48 -0.86 l-0.66 0 z M13.575 12.46 l-2.76 0 l0 5.64 l2.78 0 l0 1.9 l-4.68 0 l0 -14.28 l4.68 0 l0 1.9 l-2.78 0 l0 2.94 l2.76 0 l0 1.9 z M19.869999999999997 20.12 c-1.52 0 -2.74 -1.24 -2.74 -2.74 l0 -2.18 l1.94 0 l0 2.18 c0 0.44 0.36 0.8 0.8 0.8 s0.78 -0.36 0.78 -0.8 l0 -1.9 l-3.52 -4.86 l0 -2.48 c0 -1.52 1.22 -2.76 2.74 -2.76 c1.5 0 2.72 1.24 2.72 2.76 l0 2.16 l-1.94 0 l0 -2.16 c0 -0.46 -0.34 -0.8 -0.78 -0.8 s-0.8 0.34 -0.8 0.8 l0 1.82 l3.52 4.86 l0 2.56 c0 1.5 -1.22 2.74 -2.72 2.74 z M32.425 5.68 l0 1.92 l-2.38 0 l0 12.42 l-1.92 0 l0 -12.42 l-2.62 0 l0 -1.92 l6.92 0 z M44.395 17 l0 2.98 l-1.9 0 l0 -14.26 l2.96 0 c1.32 0 2.38 1.08 2.38 2.4 l0 6.5 c0 1.32 -1.06 2.38 -2.38 2.38 l-1.06 0 z M44.395 7.619999999999999 l0 7.48 l1.06 0 c0.28 0 0.48 -0.2 0.48 -0.48 l0 -6.5 c0 -0.28 -0.2 -0.5 -0.48 -0.5 l-1.06 0 z M54.11000000000001 20.12 c-1.52 0 -2.74 -1.24 -2.74 -2.74 l0 -2.18 l1.94 0 l0 2.18 c0 0.44 0.36 0.8 0.8 0.8 s0.78 -0.36 0.78 -0.8 l0 -1.9 l-3.52 -4.86 l0 -2.48 c0 -1.52 1.22 -2.76 2.74 -2.76 c1.5 0 2.72 1.24 2.72 2.76 l0 2.16 l-1.94 0 l0 -2.16 c0 -0.46 -0.34 -0.8 -0.78 -0.8 s-0.8 0.34 -0.8 0.8 l0 1.82 l3.52 4.86 l0 2.56 c0 1.5 -1.22 2.74 -2.72 2.74 z M67.44500000000001 5.720000000000001 l-2.68 8.68 l0 5.6 l-1.94 0 l0 -5.62 l-2.46 -8.66 l2 0 l1.46 5.14 l1.6 -5.14 l2.02 0 z M73.66000000000001 19.96 c-1.48 0 -2.68 -1.2 -2.68 -2.68 l0 -8.88 c0 -1.48 1.2 -2.68 2.68 -2.68 s2.68 1.2 2.68 2.68 l0 0.8 l-1.9 0 l0 -0.8 c0 -0.42 -0.36 -0.78 -0.78 -0.78 s-0.78 0.36 -0.78 0.78 l0 8.88 c0 0.42 0.36 0.78 0.78 0.78 s0.78 -0.36 0.78 -0.78 l0 -1.28 l1.9 0 l0 1.28 c0 1.48 -1.2 2.68 -2.68 2.68 z M83.475 5.720000000000001 l1.9 0 l0 14.26 l-1.9 0 l0 -7.54 l-1.7 0 l0 7.54 l-1.9 0 l0 -14.26 l1.9 0 l0 4.84 l1.7 0 l0 -4.84 z M90.81 5.68 l0 14.24 l-1.9 0 l0 -14.24 l1.9 0 z M99.66499999999999 20 l-0.72 -4.94 l-2.02 0 l-0.66 4.94 l-1.92 0 l2.16 -14.3 l2.58 0 l2.5 14.3 l-1.92 0 z M97.185 13.16 l1.48 0 l-0.76 -5.2 z M110.02000000000001 5.68 l0 1.92 l-2.38 0 l0 12.42 l-1.92 0 l0 -12.42 l-2.62 0 l0 -1.92 l6.92 0 z M118.93500000000002 20.04 l-2.04 0 l-1.1 -3.02 l-0.44 0 l0 3.02 l-1.9 0 l0 -14.32 l2.98 0 c1.32 0 2.38 1.06 2.38 2.38 l0 6.54 c0 0.86 -0.44 1.6 -1.12 2.02 z M115.35500000000002 7.619999999999999 l0 7.5 l1.08 0 c0.26 0 0.48 -0.22 0.48 -0.48 l0 -6.54 c0 -0.26 -0.22 -0.48 -0.48 -0.48 l-1.08 0 z M124.37000000000002 5.68 l0 14.24 l-1.9 0 l0 -14.24 l1.9 0 z M130.645 20.12 c-1.52 0 -2.74 -1.24 -2.74 -2.74 l0 -2.18 l1.94 0 l0 2.18 c0 0.44 0.36 0.8 0.8 0.8 s0.78 -0.36 0.78 -0.8 l0 -1.9 l-3.52 -4.86 l0 -2.48 c0 -1.52 1.22 -2.76 2.74 -2.76 c1.5 0 2.72 1.24 2.72 2.76 l0 2.16 l-1.94 0 l0 -2.16 c0 -0.46 -0.34 -0.8 -0.78 -0.8 s-0.8 0.34 -0.8 0.8 l0 1.82 l3.52 4.86 l0 2.56 c0 1.5 -1.22 2.74 -2.72 2.74 z M143.2 5.68 l0 1.92 l-2.38 0 l0 12.42 l-1.92 0 l0 -12.42 l-2.62 0 l0 -1.92 l6.92 0 z M155.17000000000002 5.68 l0 14.24 l-1.9 0 l0 -14.24 l1.9 0 z M163.345 16.72 l0.08 -11.08 l1.92 0 l-0.12 14.44 l-2.98 0 l-1.62 -11.18 l0 11.18 l-1.92 0 l0 -14.44 l3.1 0 z M180.055 16.72 l0.08 -11.08 l1.92 0 l-0.12 14.44 l-2.98 0 l-1.62 -11.18 l0 11.18 l-1.92 0 l0 -14.44 l3.1 0 z M188.27000000000004 19.96 c-1.48 0 -2.68 -1.2 -2.68 -2.68 l0 -8.88 c0 -1.48 1.2 -2.68 2.68 -2.68 s2.68 1.2 2.68 2.68 l0 0.8 l-1.9 0 l0 -0.8 c0 -0.42 -0.36 -0.78 -0.78 -0.78 s-0.78 0.36 -0.78 0.78 l0 8.88 c0 0.42 0.36 0.78 0.78 0.78 s0.78 -0.36 0.78 -0.78 l0 -1.28 l1.9 0 l0 1.28 c0 1.48 -1.2 2.68 -2.68 2.68 z M199.96500000000003 20.04 l-2.04 0 l-1.1 -3.02 l-0.44 0 l0 3.02 l-1.9 0 l0 -14.32 l2.98 0 c1.32 0 2.38 1.06 2.38 2.38 l0 6.54 c0 0.86 -0.44 1.6 -1.12 2.02 z M196.38500000000005 7.619999999999999 l0 7.5 l1.08 0 c0.26 0 0.48 -0.22 0.48 -0.48 l0 -6.54 c0 -0.26 -0.22 -0.48 -0.48 -0.48 l-1.08 0 z"></path>
    </g>
</svg>