<?xml version="1.0" encoding="UTF-8"?>
<svg version="1.1" xmlns="http://www.w3.org/2000/svg" width="373" height="135">
<path d="M0 0 C123.09 0 246.18 0 373 0 C373 44.55 373 89.1 373 135 C249.91 135 126.82 135 0 135 C0 90.45 0 45.9 0 0 Z " fill="#7C7C7C" transform="translate(0,0)"/>
<path d="M0 0 C123.09 0 246.18 0 373 0 C373 16.83 373 33.66 373 51 C249.91 51 126.82 51 0 51 C0 34.17 0 17.34 0 0 Z " fill="#818181" transform="translate(0,84)"/>
<path d="M0 0 C123.09 0 246.18 0 373 0 C373 8.25 373 16.5 373 25 C249.91 25 126.82 25 0 25 C0 16.75 0 8.5 0 0 Z " fill="#7D6766" transform="translate(0,59)"/>
<path d="M0 0 C123.09 0 246.18 0 373 0 C373 7.92 373 15.84 373 24 C346.07169411 24.6400616 319.15506691 25.08983329 292.21875 25.0625 C290.84118911 25.06180128 289.46362817 25.06118838 288.0860672 25.06065369 C237.01254108 25.03781692 185.93889436 24.7681338 134.86586738 24.55461836 C124.55413547 24.51153279 114.24240081 24.46915765 103.93066406 24.42724609 C103.19580637 24.4242591 102.46094869 24.4212721 101.70382258 24.41819459 C98.01423981 24.40320103 94.32465698 24.38821888 90.63507414 24.37324238 C60.42337538 24.25059461 30.21168535 24.12590986 0 24 C0 16.08 0 8.16 0 0 Z " fill="#747373" transform="translate(0,0)"/>
<path d="M0 0 C123.09 0 246.18 0 373 0 C373 3.63 373 7.26 373 11 C340.81760945 11.88733264 308.65676605 12.15133977 276.46310449 12.1343255 C270.61530032 12.13198935 264.76749797 12.13380809 258.91969373 12.1352527 C246.58646179 12.13807202 234.25323741 12.13488161 221.92000671 12.12945233 C211.55221739 12.12502717 201.18443949 12.12577541 190.81665039 12.13037109 C127.20514121 12.15783821 63.60446186 12.04025808 0 11 C0 7.37 0 3.74 0 0 Z " fill="#665151" transform="translate(0,59)"/>
<path d="M0 0 C123.09 0 246.18 0 373 0 C373 1.65 373 3.3 373 5 C249.91 5 126.82 5 0 5 C0 3.35 0 1.7 0 0 Z " fill="#656463" transform="translate(0,79)"/>
<path d="M0 0 C123.09 0 246.18 0 373 0 C373 0.99 373 1.98 373 3 C346.07266482 3.65286807 319.15431664 4.08983253 292.21875 4.0625 C290.84118911 4.06180128 289.46362817 4.06118838 288.0860672 4.06065369 C237.01254108 4.03781692 185.93889436 3.7681338 134.86586738 3.55461836 C124.55413547 3.51153279 114.24240081 3.46915765 103.93066406 3.42724609 C103.19580637 3.4242591 102.46094869 3.4212721 101.70382258 3.41819459 C98.01423981 3.40320103 94.32465698 3.38821888 90.63507414 3.37324238 C60.42337539 3.25059461 30.2116851 3.12596728 0 3 C0 2.01 0 1.02 0 0 Z " fill="#4F4F4F" transform="translate(0,21)"/>
<path d="M0 0 C123.09 0 246.18 0 373 0 C373 0.99 373 1.98 373 3 C339.09682506 3.79616388 305.21326845 4.1529761 271.30117607 4.1343255 C264.99948977 4.13170968 258.69780456 4.13416497 252.39611816 4.13571167 C241.1265889 4.13762567 229.85706603 4.13459703 218.5875383 4.12945233 C208.5822809 4.12502377 198.57703548 4.12582694 188.57177734 4.13037109 C125.70739903 4.15826586 62.85730317 4.00000956 0 3 C0 2.01 0 1.02 0 0 Z " fill="#554E4E" transform="translate(0,59)"/>
<path d="M0 0 C123.09 0 246.18 0 373 0 C373 0.99 373 1.98 373 3 C249.91 3 126.82 3 0 3 C0 2.01 0 1.02 0 0 Z " fill="#A9A7A7" transform="translate(0,56)"/>
<path d="M0 0 C123.09 0 246.18 0 373 0 C373 0.99 373 1.98 373 3 C249.91 3 126.82 3 0 3 C0 2.01 0 1.02 0 0 Z " fill="#A9A6A6" transform="translate(0,0)"/>
<path d="M0 0 C123.09 0 246.18 0 373 0 C373 0.99 373 1.98 373 3 C249.91 3 126.82 3 0 3 C0 2.01 0 1.02 0 0 Z " fill="#A89F9E" transform="translate(0,62)"/>
<path d="M0 0 C123.09 0 246.18 0 373 0 C373 0.99 373 1.98 373 3 C249.91 3 126.82 3 0 3 C0 2.01 0 1.02 0 0 Z " fill="#A69191" transform="translate(0,70)"/>
<path d="M0 0 C29.65701892 -0.02282554 59.31403742 -0.04051636 88.97106328 -0.05106533 C92.47444259 -0.052316 95.97782189 -0.05361032 99.48120117 -0.05493164 C100.52736577 -0.05532511 100.52736577 -0.05532511 101.594665 -0.05572652 C112.87914281 -0.0600747 124.16361552 -0.06795757 135.44809031 -0.0771528 C147.03189067 -0.08651302 158.61568807 -0.09198581 170.19949204 -0.09408849 C176.70386097 -0.09539192 183.20821832 -0.09845457 189.71258354 -0.10573006 C195.83642437 -0.11252432 201.96024886 -0.11461001 208.08409309 -0.11310768 C210.32983107 -0.11338247 212.57556961 -0.11536737 214.82130432 -0.11920547 C217.89227763 -0.12419592 220.96318964 -0.12297857 224.03416443 -0.12025452 C225.36056392 -0.12462378 225.36056392 -0.12462378 226.71375936 -0.12908131 C232.21639383 -0.11592937 237.54003182 0.30646024 243 1 C243 1.33 243 1.66 243 2 C236.29272959 2.78444191 229.70219987 3.14266303 222.95187378 3.12025452 C221.99186183 3.12110894 221.03184988 3.12196337 220.04274666 3.12284368 C216.85383633 3.1244794 213.66497963 3.11900861 210.47607422 3.11352539 C208.1790619 3.11324308 205.8820495 3.11340211 203.58503723 3.1139679 C197.36887755 3.11425416 191.15273727 3.10838505 184.93658209 3.10139394 C178.43299299 3.09513195 171.92940342 3.09455435 165.42581177 3.09336853 C154.51629288 3.09061611 143.60678113 3.08437489 132.69726562 3.07543945 C121.46451859 3.06624889 110.23177348 3.05917611 98.99902344 3.05493164 C98.3056807 3.05466892 97.61233797 3.05440619 96.89798485 3.05413551 C93.4194026 3.05283039 89.94082034 3.0515667 86.46223807 3.05032361 C57.64148736 3.03997077 28.82074385 3.022295 0 3 C0 2.01 0 1.02 0 0 Z " fill="#A7A3A3" transform="translate(0,10)"/>
</svg>
